<mxfile host="app.diagrams.net" modified="2023-06-25T17:37:27.016Z" agent="Mozilla/5.0 (Windows NT 10.0; Win64; x64) AppleWebKit/537.36 (KHTML, like Gecko) Chrome/112.0.0.0 Safari/537.36" etag="idJStx3cBpj6Jd4swOSR" version="21.5.0" type="github">
  <diagram id="C5RBs43oDa-KdzZeNtuy" name="Page-1">
    <mxGraphModel dx="1173" dy="616" grid="1" gridSize="10" guides="1" tooltips="1" connect="1" arrows="1" fold="1" page="1" pageScale="1" pageWidth="1654" pageHeight="1169" math="0" shadow="0">
      <root>
        <mxCell id="WIyWlLk6GJQsqaUBKTNV-0" />
        <mxCell id="WIyWlLk6GJQsqaUBKTNV-1" parent="WIyWlLk6GJQsqaUBKTNV-0" />
        <mxCell id="ANFr0kn6SjRXUgFIm7dF-45" style="edgeStyle=orthogonalEdgeStyle;rounded=0;orthogonalLoop=1;jettySize=auto;html=1;exitX=0.5;exitY=1;exitDx=0;exitDy=0;entryX=0.5;entryY=0;entryDx=0;entryDy=0;" edge="1" parent="WIyWlLk6GJQsqaUBKTNV-1" source="ANFr0kn6SjRXUgFIm7dF-0" target="ANFr0kn6SjRXUgFIm7dF-1">
          <mxGeometry relative="1" as="geometry" />
        </mxCell>
        <mxCell id="ANFr0kn6SjRXUgFIm7dF-0" value="Start" style="ellipse;whiteSpace=wrap;html=1;" vertex="1" parent="WIyWlLk6GJQsqaUBKTNV-1">
          <mxGeometry x="680" y="40" width="120" height="80" as="geometry" />
        </mxCell>
        <mxCell id="ANFr0kn6SjRXUgFIm7dF-46" style="edgeStyle=orthogonalEdgeStyle;rounded=0;orthogonalLoop=1;jettySize=auto;html=1;exitX=0.5;exitY=1;exitDx=0;exitDy=0;entryX=0.5;entryY=0;entryDx=0;entryDy=0;" edge="1" parent="WIyWlLk6GJQsqaUBKTNV-1" source="ANFr0kn6SjRXUgFIm7dF-1" target="ANFr0kn6SjRXUgFIm7dF-2">
          <mxGeometry relative="1" as="geometry" />
        </mxCell>
        <mxCell id="ANFr0kn6SjRXUgFIm7dF-1" value="INPUT &lt;br&gt;a, b, c" style="shape=parallelogram;perimeter=parallelogramPerimeter;whiteSpace=wrap;html=1;fixedSize=1;" vertex="1" parent="WIyWlLk6GJQsqaUBKTNV-1">
          <mxGeometry x="680" y="160" width="120" height="60" as="geometry" />
        </mxCell>
        <mxCell id="ANFr0kn6SjRXUgFIm7dF-2" value="IF b&amp;gt;a" style="rhombus;whiteSpace=wrap;html=1;" vertex="1" parent="WIyWlLk6GJQsqaUBKTNV-1">
          <mxGeometry x="700" y="260" width="80" height="80" as="geometry" />
        </mxCell>
        <mxCell id="ANFr0kn6SjRXUgFIm7dF-3" value="IF c&amp;gt;b" style="rhombus;whiteSpace=wrap;html=1;" vertex="1" parent="WIyWlLk6GJQsqaUBKTNV-1">
          <mxGeometry x="510" y="340" width="80" height="80" as="geometry" />
        </mxCell>
        <mxCell id="ANFr0kn6SjRXUgFIm7dF-47" style="edgeStyle=orthogonalEdgeStyle;rounded=0;orthogonalLoop=1;jettySize=auto;html=1;exitX=0.5;exitY=1;exitDx=0;exitDy=0;entryX=0;entryY=0.5;entryDx=0;entryDy=0;" edge="1" parent="WIyWlLk6GJQsqaUBKTNV-1" source="ANFr0kn6SjRXUgFIm7dF-9" target="ANFr0kn6SjRXUgFIm7dF-38">
          <mxGeometry relative="1" as="geometry">
            <mxPoint x="549.6666666666667" y="800" as="targetPoint" />
          </mxGeometry>
        </mxCell>
        <mxCell id="ANFr0kn6SjRXUgFIm7dF-9" value="OUTPUT&amp;nbsp;&lt;br&gt;a b c" style="shape=parallelogram;perimeter=parallelogramPerimeter;whiteSpace=wrap;html=1;fixedSize=1;" vertex="1" parent="WIyWlLk6GJQsqaUBKTNV-1">
          <mxGeometry x="490" y="525" width="120" height="60" as="geometry" />
        </mxCell>
        <mxCell id="ANFr0kn6SjRXUgFIm7dF-18" value="IF c&amp;lt;a" style="rhombus;whiteSpace=wrap;html=1;" vertex="1" parent="WIyWlLk6GJQsqaUBKTNV-1">
          <mxGeometry x="310" y="340" width="80" height="80" as="geometry" />
        </mxCell>
        <mxCell id="ANFr0kn6SjRXUgFIm7dF-48" style="edgeStyle=orthogonalEdgeStyle;rounded=0;orthogonalLoop=1;jettySize=auto;html=1;exitX=0.5;exitY=1;exitDx=0;exitDy=0;entryX=0.036;entryY=0.813;entryDx=0;entryDy=0;entryPerimeter=0;" edge="1" parent="WIyWlLk6GJQsqaUBKTNV-1" source="ANFr0kn6SjRXUgFIm7dF-19" target="ANFr0kn6SjRXUgFIm7dF-38">
          <mxGeometry relative="1" as="geometry">
            <mxPoint x="349.66666666666674" y="820" as="targetPoint" />
            <Array as="points">
              <mxPoint x="350" y="820" />
              <mxPoint x="684" y="820" />
            </Array>
          </mxGeometry>
        </mxCell>
        <mxCell id="ANFr0kn6SjRXUgFIm7dF-19" value="OUTPUT&amp;nbsp;&lt;br&gt;c a b" style="shape=parallelogram;perimeter=parallelogramPerimeter;whiteSpace=wrap;html=1;fixedSize=1;" vertex="1" parent="WIyWlLk6GJQsqaUBKTNV-1">
          <mxGeometry x="290" y="525" width="120" height="60" as="geometry" />
        </mxCell>
        <mxCell id="ANFr0kn6SjRXUgFIm7dF-20" value="IF c&amp;lt;b" style="rhombus;whiteSpace=wrap;html=1;" vertex="1" parent="WIyWlLk6GJQsqaUBKTNV-1">
          <mxGeometry x="90" y="340" width="80" height="80" as="geometry" />
        </mxCell>
        <mxCell id="ANFr0kn6SjRXUgFIm7dF-49" style="edgeStyle=orthogonalEdgeStyle;rounded=0;orthogonalLoop=1;jettySize=auto;html=1;exitX=0.5;exitY=1;exitDx=0;exitDy=0;entryX=0.247;entryY=0.963;entryDx=0;entryDy=0;entryPerimeter=0;" edge="1" parent="WIyWlLk6GJQsqaUBKTNV-1" source="ANFr0kn6SjRXUgFIm7dF-21" target="ANFr0kn6SjRXUgFIm7dF-38">
          <mxGeometry relative="1" as="geometry">
            <Array as="points">
              <mxPoint x="130" y="870" />
              <mxPoint x="710" y="870" />
            </Array>
          </mxGeometry>
        </mxCell>
        <mxCell id="ANFr0kn6SjRXUgFIm7dF-21" value="OUTPUT&amp;nbsp;&lt;br&gt;a c b" style="shape=parallelogram;perimeter=parallelogramPerimeter;whiteSpace=wrap;html=1;fixedSize=1;" vertex="1" parent="WIyWlLk6GJQsqaUBKTNV-1">
          <mxGeometry x="70" y="525" width="120" height="60" as="geometry" />
        </mxCell>
        <mxCell id="ANFr0kn6SjRXUgFIm7dF-52" style="edgeStyle=orthogonalEdgeStyle;rounded=0;orthogonalLoop=1;jettySize=auto;html=1;entryX=0.5;entryY=1;entryDx=0;entryDy=0;" edge="1" parent="WIyWlLk6GJQsqaUBKTNV-1" source="ANFr0kn6SjRXUgFIm7dF-29" target="ANFr0kn6SjRXUgFIm7dF-38">
          <mxGeometry relative="1" as="geometry">
            <Array as="points">
              <mxPoint x="1320" y="860" />
              <mxPoint x="740" y="860" />
            </Array>
          </mxGeometry>
        </mxCell>
        <mxCell id="ANFr0kn6SjRXUgFIm7dF-29" value="OUTPUT&amp;nbsp;&lt;br&gt;b c a" style="shape=parallelogram;perimeter=parallelogramPerimeter;whiteSpace=wrap;html=1;fixedSize=1;" vertex="1" parent="WIyWlLk6GJQsqaUBKTNV-1">
          <mxGeometry x="1260" y="525" width="120" height="60" as="geometry" />
        </mxCell>
        <mxCell id="ANFr0kn6SjRXUgFIm7dF-51" style="edgeStyle=orthogonalEdgeStyle;rounded=0;orthogonalLoop=1;jettySize=auto;html=1;exitX=0.5;exitY=1;exitDx=0;exitDy=0;entryX=1;entryY=1;entryDx=0;entryDy=0;" edge="1" parent="WIyWlLk6GJQsqaUBKTNV-1" source="ANFr0kn6SjRXUgFIm7dF-32" target="ANFr0kn6SjRXUgFIm7dF-38">
          <mxGeometry relative="1" as="geometry">
            <Array as="points">
              <mxPoint x="1120" y="828" />
            </Array>
          </mxGeometry>
        </mxCell>
        <mxCell id="ANFr0kn6SjRXUgFIm7dF-32" value="OUTPUT&amp;nbsp;&lt;br&gt;c b a" style="shape=parallelogram;perimeter=parallelogramPerimeter;whiteSpace=wrap;html=1;fixedSize=1;" vertex="1" parent="WIyWlLk6GJQsqaUBKTNV-1">
          <mxGeometry x="1060" y="525" width="120" height="60" as="geometry" />
        </mxCell>
        <mxCell id="ANFr0kn6SjRXUgFIm7dF-50" style="edgeStyle=orthogonalEdgeStyle;rounded=0;orthogonalLoop=1;jettySize=auto;html=1;exitX=0.5;exitY=1;exitDx=0;exitDy=0;entryX=0.969;entryY=0.379;entryDx=0;entryDy=0;entryPerimeter=0;" edge="1" parent="WIyWlLk6GJQsqaUBKTNV-1" source="ANFr0kn6SjRXUgFIm7dF-34" target="ANFr0kn6SjRXUgFIm7dF-38">
          <mxGeometry relative="1" as="geometry">
            <Array as="points">
              <mxPoint x="900" y="790" />
            </Array>
          </mxGeometry>
        </mxCell>
        <mxCell id="ANFr0kn6SjRXUgFIm7dF-34" value="OUTPUT&amp;nbsp;&lt;br&gt;b a c" style="shape=parallelogram;perimeter=parallelogramPerimeter;whiteSpace=wrap;html=1;fixedSize=1;" vertex="1" parent="WIyWlLk6GJQsqaUBKTNV-1">
          <mxGeometry x="840" y="525" width="120" height="60" as="geometry" />
        </mxCell>
        <mxCell id="ANFr0kn6SjRXUgFIm7dF-35" value="IF c&amp;gt;a" style="rhombus;whiteSpace=wrap;html=1;" vertex="1" parent="WIyWlLk6GJQsqaUBKTNV-1">
          <mxGeometry x="860" y="340" width="80" height="80" as="geometry" />
        </mxCell>
        <mxCell id="ANFr0kn6SjRXUgFIm7dF-36" value="IF c&amp;lt;b" style="rhombus;whiteSpace=wrap;html=1;" vertex="1" parent="WIyWlLk6GJQsqaUBKTNV-1">
          <mxGeometry x="1080" y="340" width="80" height="80" as="geometry" />
        </mxCell>
        <mxCell id="ANFr0kn6SjRXUgFIm7dF-37" value="IF c&amp;lt;a" style="rhombus;whiteSpace=wrap;html=1;" vertex="1" parent="WIyWlLk6GJQsqaUBKTNV-1">
          <mxGeometry x="1280" y="340" width="80" height="80" as="geometry" />
        </mxCell>
        <mxCell id="ANFr0kn6SjRXUgFIm7dF-38" value="END" style="ellipse;whiteSpace=wrap;html=1;" vertex="1" parent="WIyWlLk6GJQsqaUBKTNV-1">
          <mxGeometry x="680" y="760" width="120" height="80" as="geometry" />
        </mxCell>
        <mxCell id="ANFr0kn6SjRXUgFIm7dF-39" value="" style="endArrow=classic;html=1;rounded=0;exitX=0;exitY=0.5;exitDx=0;exitDy=0;" edge="1" parent="WIyWlLk6GJQsqaUBKTNV-1" source="ANFr0kn6SjRXUgFIm7dF-2">
          <mxGeometry relative="1" as="geometry">
            <mxPoint x="450" y="338.67" as="sourcePoint" />
            <mxPoint x="550" y="338.67" as="targetPoint" />
            <Array as="points">
              <mxPoint x="550" y="300" />
              <mxPoint x="550" y="338.67" />
            </Array>
          </mxGeometry>
        </mxCell>
        <mxCell id="ANFr0kn6SjRXUgFIm7dF-40" value="True" style="edgeLabel;resizable=0;html=1;align=center;verticalAlign=middle;" connectable="0" vertex="1" parent="ANFr0kn6SjRXUgFIm7dF-39">
          <mxGeometry relative="1" as="geometry" />
        </mxCell>
        <mxCell id="ANFr0kn6SjRXUgFIm7dF-43" value="" style="endArrow=classic;html=1;rounded=0;entryX=0.5;entryY=0;entryDx=0;entryDy=0;" edge="1" parent="WIyWlLk6GJQsqaUBKTNV-1" target="ANFr0kn6SjRXUgFIm7dF-35">
          <mxGeometry relative="1" as="geometry">
            <mxPoint x="780" y="299.33" as="sourcePoint" />
            <mxPoint x="900" y="299" as="targetPoint" />
            <Array as="points">
              <mxPoint x="900" y="299" />
            </Array>
          </mxGeometry>
        </mxCell>
        <mxCell id="ANFr0kn6SjRXUgFIm7dF-44" value="False" style="edgeLabel;resizable=0;html=1;align=center;verticalAlign=middle;" connectable="0" vertex="1" parent="ANFr0kn6SjRXUgFIm7dF-43">
          <mxGeometry relative="1" as="geometry" />
        </mxCell>
        <mxCell id="ANFr0kn6SjRXUgFIm7dF-53" value="" style="endArrow=classic;html=1;rounded=0;entryX=0;entryY=0.5;entryDx=0;entryDy=0;" edge="1" parent="WIyWlLk6GJQsqaUBKTNV-1" target="ANFr0kn6SjRXUgFIm7dF-36">
          <mxGeometry relative="1" as="geometry">
            <mxPoint x="940" y="379.33" as="sourcePoint" />
            <mxPoint x="1040" y="379.33" as="targetPoint" />
          </mxGeometry>
        </mxCell>
        <mxCell id="ANFr0kn6SjRXUgFIm7dF-54" value="False" style="edgeLabel;resizable=0;html=1;align=center;verticalAlign=middle;" connectable="0" vertex="1" parent="ANFr0kn6SjRXUgFIm7dF-53">
          <mxGeometry relative="1" as="geometry" />
        </mxCell>
        <mxCell id="ANFr0kn6SjRXUgFIm7dF-55" value="" style="endArrow=classic;html=1;rounded=0;entryX=0;entryY=0.5;entryDx=0;entryDy=0;" edge="1" parent="WIyWlLk6GJQsqaUBKTNV-1" target="ANFr0kn6SjRXUgFIm7dF-37">
          <mxGeometry relative="1" as="geometry">
            <mxPoint x="1160" y="379.33" as="sourcePoint" />
            <mxPoint x="1250" y="380" as="targetPoint" />
          </mxGeometry>
        </mxCell>
        <mxCell id="ANFr0kn6SjRXUgFIm7dF-56" value="Fallse" style="edgeLabel;resizable=0;html=1;align=center;verticalAlign=middle;" connectable="0" vertex="1" parent="ANFr0kn6SjRXUgFIm7dF-55">
          <mxGeometry relative="1" as="geometry" />
        </mxCell>
        <mxCell id="ANFr0kn6SjRXUgFIm7dF-57" value="" style="endArrow=classic;html=1;rounded=0;" edge="1" parent="WIyWlLk6GJQsqaUBKTNV-1">
          <mxGeometry relative="1" as="geometry">
            <mxPoint x="899" y="420" as="sourcePoint" />
            <mxPoint x="899.33" y="525" as="targetPoint" />
          </mxGeometry>
        </mxCell>
        <mxCell id="ANFr0kn6SjRXUgFIm7dF-58" value="True" style="edgeLabel;resizable=0;html=1;align=center;verticalAlign=middle;" connectable="0" vertex="1" parent="ANFr0kn6SjRXUgFIm7dF-57">
          <mxGeometry relative="1" as="geometry" />
        </mxCell>
        <mxCell id="ANFr0kn6SjRXUgFIm7dF-59" value="" style="endArrow=classic;html=1;rounded=0;" edge="1" parent="WIyWlLk6GJQsqaUBKTNV-1">
          <mxGeometry relative="1" as="geometry">
            <mxPoint x="1319.33" y="420" as="sourcePoint" />
            <mxPoint x="1319.66" y="525" as="targetPoint" />
          </mxGeometry>
        </mxCell>
        <mxCell id="ANFr0kn6SjRXUgFIm7dF-60" value="True" style="edgeLabel;resizable=0;html=1;align=center;verticalAlign=middle;" connectable="0" vertex="1" parent="ANFr0kn6SjRXUgFIm7dF-59">
          <mxGeometry relative="1" as="geometry" />
        </mxCell>
        <mxCell id="ANFr0kn6SjRXUgFIm7dF-61" value="" style="endArrow=classic;html=1;rounded=0;" edge="1" parent="WIyWlLk6GJQsqaUBKTNV-1">
          <mxGeometry relative="1" as="geometry">
            <mxPoint x="1119.33" y="420" as="sourcePoint" />
            <mxPoint x="1119.66" y="525" as="targetPoint" />
          </mxGeometry>
        </mxCell>
        <mxCell id="ANFr0kn6SjRXUgFIm7dF-62" value="True" style="edgeLabel;resizable=0;html=1;align=center;verticalAlign=middle;" connectable="0" vertex="1" parent="ANFr0kn6SjRXUgFIm7dF-61">
          <mxGeometry relative="1" as="geometry" />
        </mxCell>
        <mxCell id="ANFr0kn6SjRXUgFIm7dF-63" value="" style="endArrow=classic;html=1;rounded=0;" edge="1" parent="WIyWlLk6GJQsqaUBKTNV-1">
          <mxGeometry relative="1" as="geometry">
            <mxPoint x="349.33000000000004" y="420" as="sourcePoint" />
            <mxPoint x="349.6600000000001" y="525" as="targetPoint" />
          </mxGeometry>
        </mxCell>
        <mxCell id="ANFr0kn6SjRXUgFIm7dF-64" value="True" style="edgeLabel;resizable=0;html=1;align=center;verticalAlign=middle;" connectable="0" vertex="1" parent="ANFr0kn6SjRXUgFIm7dF-63">
          <mxGeometry relative="1" as="geometry" />
        </mxCell>
        <mxCell id="ANFr0kn6SjRXUgFIm7dF-65" value="" style="endArrow=classic;html=1;rounded=0;" edge="1" parent="WIyWlLk6GJQsqaUBKTNV-1">
          <mxGeometry relative="1" as="geometry">
            <mxPoint x="549.3299999999999" y="420" as="sourcePoint" />
            <mxPoint x="549.6600000000001" y="525" as="targetPoint" />
          </mxGeometry>
        </mxCell>
        <mxCell id="ANFr0kn6SjRXUgFIm7dF-66" value="True" style="edgeLabel;resizable=0;html=1;align=center;verticalAlign=middle;" connectable="0" vertex="1" parent="ANFr0kn6SjRXUgFIm7dF-65">
          <mxGeometry relative="1" as="geometry" />
        </mxCell>
        <mxCell id="ANFr0kn6SjRXUgFIm7dF-67" value="" style="endArrow=classic;html=1;rounded=0;" edge="1" parent="WIyWlLk6GJQsqaUBKTNV-1">
          <mxGeometry relative="1" as="geometry">
            <mxPoint x="129.33000000000004" y="420" as="sourcePoint" />
            <mxPoint x="129.66000000000008" y="525" as="targetPoint" />
          </mxGeometry>
        </mxCell>
        <mxCell id="ANFr0kn6SjRXUgFIm7dF-68" value="True" style="edgeLabel;resizable=0;html=1;align=center;verticalAlign=middle;" connectable="0" vertex="1" parent="ANFr0kn6SjRXUgFIm7dF-67">
          <mxGeometry relative="1" as="geometry" />
        </mxCell>
        <mxCell id="ANFr0kn6SjRXUgFIm7dF-69" value="" style="endArrow=classic;html=1;rounded=0;" edge="1" parent="WIyWlLk6GJQsqaUBKTNV-1">
          <mxGeometry relative="1" as="geometry">
            <mxPoint x="510" y="379.33" as="sourcePoint" />
            <mxPoint x="390" y="379.33" as="targetPoint" />
            <Array as="points">
              <mxPoint x="460" y="379" />
            </Array>
          </mxGeometry>
        </mxCell>
        <mxCell id="ANFr0kn6SjRXUgFIm7dF-70" value="False" style="edgeLabel;resizable=0;html=1;align=center;verticalAlign=middle;" connectable="0" vertex="1" parent="ANFr0kn6SjRXUgFIm7dF-69">
          <mxGeometry relative="1" as="geometry" />
        </mxCell>
        <mxCell id="ANFr0kn6SjRXUgFIm7dF-71" value="" style="endArrow=classic;html=1;rounded=0;entryX=1;entryY=0.5;entryDx=0;entryDy=0;" edge="1" parent="WIyWlLk6GJQsqaUBKTNV-1" target="ANFr0kn6SjRXUgFIm7dF-20">
          <mxGeometry relative="1" as="geometry">
            <mxPoint x="310" y="379.65999999999997" as="sourcePoint" />
            <mxPoint x="190" y="379.65999999999997" as="targetPoint" />
            <Array as="points">
              <mxPoint x="260" y="379.33" />
            </Array>
          </mxGeometry>
        </mxCell>
        <mxCell id="ANFr0kn6SjRXUgFIm7dF-72" value="False" style="edgeLabel;resizable=0;html=1;align=center;verticalAlign=middle;" connectable="0" vertex="1" parent="ANFr0kn6SjRXUgFIm7dF-71">
          <mxGeometry relative="1" as="geometry" />
        </mxCell>
      </root>
    </mxGraphModel>
  </diagram>
</mxfile>
